<mxfile host="app.diagrams.net" modified="2021-07-13T08:36:18.228Z" agent="5.0 (Windows NT 6.1; Win64; x64) AppleWebKit/537.36 (KHTML, like Gecko) Chrome/91.0.4472.124 Safari/537.36" etag="Dxw2SPLtvsouR7hGsZVv" version="14.8.6" type="github">
  <diagram id="B_yDtCZu8Hi4jRMb0uQ-" name="Page-1">
    <mxGraphModel dx="1422" dy="762" grid="1" gridSize="10" guides="1" tooltips="1" connect="1" arrows="1" fold="1" page="1" pageScale="1" pageWidth="827" pageHeight="1169" math="0" shadow="0">
      <root>
        <mxCell id="0" />
        <mxCell id="1" parent="0" />
        <mxCell id="m3cK9-EeNQBWDBcqQpg2-1" value="LRU链表" style="swimlane;" vertex="1" parent="1">
          <mxGeometry x="160" y="60" width="120" height="340" as="geometry">
            <mxRectangle x="160" y="60" width="80" height="23" as="alternateBounds" />
          </mxGeometry>
        </mxCell>
        <mxCell id="m3cK9-EeNQBWDBcqQpg2-2" value="" style="whiteSpace=wrap;html=1;fillColor=#dae8fc;strokeColor=#6c8ebf;" vertex="1" parent="m3cK9-EeNQBWDBcqQpg2-1">
          <mxGeometry y="20" width="120" height="200" as="geometry" />
        </mxCell>
        <mxCell id="m3cK9-EeNQBWDBcqQpg2-4" value="" style="whiteSpace=wrap;html=1;fillColor=#fff2cc;strokeColor=#d6b656;" vertex="1" parent="m3cK9-EeNQBWDBcqQpg2-1">
          <mxGeometry y="220" width="120" height="120" as="geometry" />
        </mxCell>
        <mxCell id="m3cK9-EeNQBWDBcqQpg2-11" value="head" style="rounded=0;whiteSpace=wrap;html=1;gradientColor=#ea6b66;fillColor=#f8cecc;strokeColor=#b85450;" vertex="1" parent="m3cK9-EeNQBWDBcqQpg2-1">
          <mxGeometry y="20" width="120" height="40" as="geometry" />
        </mxCell>
        <mxCell id="m3cK9-EeNQBWDBcqQpg2-12" value="tail" style="rounded=0;whiteSpace=wrap;html=1;gradientColor=#ea6b66;fillColor=#f8cecc;strokeColor=#b85450;" vertex="1" parent="m3cK9-EeNQBWDBcqQpg2-1">
          <mxGeometry y="180" width="120" height="40" as="geometry" />
        </mxCell>
        <mxCell id="m3cK9-EeNQBWDBcqQpg2-13" value="head" style="rounded=0;whiteSpace=wrap;html=1;gradientColor=#97d077;fillColor=#d5e8d4;strokeColor=#82b366;" vertex="1" parent="m3cK9-EeNQBWDBcqQpg2-1">
          <mxGeometry y="220" width="120" height="40" as="geometry" />
        </mxCell>
        <mxCell id="m3cK9-EeNQBWDBcqQpg2-14" value="tail" style="rounded=0;whiteSpace=wrap;html=1;gradientColor=#97d077;fillColor=#d5e8d4;strokeColor=#82b366;" vertex="1" parent="m3cK9-EeNQBWDBcqQpg2-1">
          <mxGeometry y="300" width="120" height="40" as="geometry" />
        </mxCell>
        <mxCell id="m3cK9-EeNQBWDBcqQpg2-5" value="" style="shape=curlyBracket;whiteSpace=wrap;html=1;rounded=1;flipH=1;" vertex="1" parent="1">
          <mxGeometry x="280" y="80" width="20" height="200" as="geometry" />
        </mxCell>
        <mxCell id="m3cK9-EeNQBWDBcqQpg2-6" value="" style="shape=curlyBracket;whiteSpace=wrap;html=1;rounded=1;flipH=1;" vertex="1" parent="1">
          <mxGeometry x="280" y="280" width="20" height="120" as="geometry" />
        </mxCell>
        <mxCell id="m3cK9-EeNQBWDBcqQpg2-7" value="young链表 5/8" style="text;html=1;strokeColor=none;fillColor=none;align=center;verticalAlign=middle;whiteSpace=wrap;rounded=0;" vertex="1" parent="1">
          <mxGeometry x="300" y="170" width="60" height="20" as="geometry" />
        </mxCell>
        <mxCell id="m3cK9-EeNQBWDBcqQpg2-8" value="old链表&lt;br&gt;3/8" style="text;html=1;strokeColor=none;fillColor=none;align=center;verticalAlign=middle;whiteSpace=wrap;rounded=0;" vertex="1" parent="1">
          <mxGeometry x="300" y="330" width="60" height="20" as="geometry" />
        </mxCell>
        <mxCell id="m3cK9-EeNQBWDBcqQpg2-9" value="" style="endArrow=classic;html=1;entryX=0.5;entryY=0;entryDx=0;entryDy=0;" edge="1" parent="1" target="m3cK9-EeNQBWDBcqQpg2-6">
          <mxGeometry width="50" height="50" relative="1" as="geometry">
            <mxPoint x="390" y="280" as="sourcePoint" />
            <mxPoint x="440" y="360" as="targetPoint" />
          </mxGeometry>
        </mxCell>
        <mxCell id="m3cK9-EeNQBWDBcqQpg2-10" value="数据插入点" style="text;html=1;strokeColor=none;fillColor=none;align=center;verticalAlign=middle;whiteSpace=wrap;rounded=0;" vertex="1" parent="1">
          <mxGeometry x="390" y="270" width="70" height="20" as="geometry" />
        </mxCell>
        <mxCell id="m3cK9-EeNQBWDBcqQpg2-15" value="LRU链表基节点" style="swimlane;" vertex="1" parent="1">
          <mxGeometry y="160" width="120" height="200" as="geometry" />
        </mxCell>
        <mxCell id="m3cK9-EeNQBWDBcqQpg2-17" value="end" style="whiteSpace=wrap;html=1;" vertex="1" parent="m3cK9-EeNQBWDBcqQpg2-15">
          <mxGeometry y="80" width="120" height="60" as="geometry" />
        </mxCell>
        <mxCell id="m3cK9-EeNQBWDBcqQpg2-18" value="count" style="whiteSpace=wrap;html=1;" vertex="1" parent="m3cK9-EeNQBWDBcqQpg2-15">
          <mxGeometry y="140" width="120" height="60" as="geometry" />
        </mxCell>
        <mxCell id="m3cK9-EeNQBWDBcqQpg2-16" value="start" style="whiteSpace=wrap;html=1;" vertex="1" parent="1">
          <mxGeometry y="180" width="120" height="60" as="geometry" />
        </mxCell>
        <mxCell id="m3cK9-EeNQBWDBcqQpg2-19" value="" style="endArrow=classic;html=1;exitX=1;exitY=0.5;exitDx=0;exitDy=0;entryX=0;entryY=0.5;entryDx=0;entryDy=0;" edge="1" parent="1" source="m3cK9-EeNQBWDBcqQpg2-16" target="m3cK9-EeNQBWDBcqQpg2-11">
          <mxGeometry width="50" height="50" relative="1" as="geometry">
            <mxPoint x="390" y="390" as="sourcePoint" />
            <mxPoint x="440" y="340" as="targetPoint" />
          </mxGeometry>
        </mxCell>
        <mxCell id="m3cK9-EeNQBWDBcqQpg2-20" value="" style="endArrow=classic;html=1;exitX=1;exitY=0.5;exitDx=0;exitDy=0;entryX=0;entryY=0.75;entryDx=0;entryDy=0;" edge="1" parent="1" source="m3cK9-EeNQBWDBcqQpg2-17" target="m3cK9-EeNQBWDBcqQpg2-14">
          <mxGeometry width="50" height="50" relative="1" as="geometry">
            <mxPoint x="390" y="450" as="sourcePoint" />
            <mxPoint x="440" y="400" as="targetPoint" />
          </mxGeometry>
        </mxCell>
      </root>
    </mxGraphModel>
  </diagram>
</mxfile>
